<mxfile host="app.diagrams.net" modified="2022-05-24T04:11:01.335Z" agent="5.0 (Windows NT 10.0; Win64; x64) AppleWebKit/537.36 (KHTML, like Gecko) Chrome/101.0.4951.67 Safari/537.36" etag="l11xt3rQYVthdfHQyr07" version="18.1.1" type="github">
  <diagram id="kBBc2JsPWASkHgDuxC8e" name="Page-1">
    <mxGraphModel dx="1422" dy="762" grid="1" gridSize="10" guides="1" tooltips="1" connect="1" arrows="1" fold="1" page="1" pageScale="1" pageWidth="1654" pageHeight="1169" math="0" shadow="0">
      <root>
        <mxCell id="0" />
        <mxCell id="1" parent="0" />
        <mxCell id="ln6FcJClQyvE4a3wRQ_i-1" style="edgeStyle=orthogonalEdgeStyle;rounded=0;orthogonalLoop=1;jettySize=auto;html=1;entryX=0.5;entryY=0;entryDx=0;entryDy=0;" parent="1" source="ln6FcJClQyvE4a3wRQ_i-3" target="ln6FcJClQyvE4a3wRQ_i-8" edge="1">
          <mxGeometry relative="1" as="geometry" />
        </mxCell>
        <mxCell id="ln6FcJClQyvE4a3wRQ_i-2" value="" style="edgeStyle=orthogonalEdgeStyle;rounded=0;orthogonalLoop=1;jettySize=auto;html=1;" parent="1" source="ln6FcJClQyvE4a3wRQ_i-3" target="ln6FcJClQyvE4a3wRQ_i-14" edge="1">
          <mxGeometry relative="1" as="geometry" />
        </mxCell>
        <mxCell id="ln6FcJClQyvE4a3wRQ_i-3" value="&lt;b&gt;Risk Culture&lt;/b&gt;" style="rounded=1;whiteSpace=wrap;html=1;" parent="1" vertex="1">
          <mxGeometry x="1173" y="181.25" width="80" height="40" as="geometry" />
        </mxCell>
        <mxCell id="ln6FcJClQyvE4a3wRQ_i-4" value="" style="edgeStyle=orthogonalEdgeStyle;rounded=0;orthogonalLoop=1;jettySize=auto;html=1;" parent="1" source="ln6FcJClQyvE4a3wRQ_i-5" target="ln6FcJClQyvE4a3wRQ_i-16" edge="1">
          <mxGeometry relative="1" as="geometry" />
        </mxCell>
        <mxCell id="ln6FcJClQyvE4a3wRQ_i-5" value="&lt;b&gt;Risk Appetite&lt;/b&gt;" style="rounded=1;whiteSpace=wrap;html=1;" parent="1" vertex="1">
          <mxGeometry x="1263" y="271.25" width="100" height="40" as="geometry" />
        </mxCell>
        <mxCell id="ln6FcJClQyvE4a3wRQ_i-6" value="" style="edgeStyle=orthogonalEdgeStyle;rounded=0;orthogonalLoop=1;jettySize=auto;html=1;exitX=0.5;exitY=1;exitDx=0;exitDy=0;" parent="1" source="ln6FcJClQyvE4a3wRQ_i-3" target="ln6FcJClQyvE4a3wRQ_i-5" edge="1">
          <mxGeometry relative="1" as="geometry" />
        </mxCell>
        <mxCell id="ln6FcJClQyvE4a3wRQ_i-7" style="edgeStyle=orthogonalEdgeStyle;rounded=0;orthogonalLoop=1;jettySize=auto;html=1;entryX=1;entryY=0.5;entryDx=0;entryDy=0;dashed=1;" parent="1" source="ln6FcJClQyvE4a3wRQ_i-8" target="ln6FcJClQyvE4a3wRQ_i-72" edge="1">
          <mxGeometry relative="1" as="geometry" />
        </mxCell>
        <mxCell id="ln6FcJClQyvE4a3wRQ_i-8" value="Risk management methodology" style="rounded=1;whiteSpace=wrap;html=1;" parent="1" vertex="1">
          <mxGeometry x="1063" y="271.25" width="110" height="40" as="geometry" />
        </mxCell>
        <mxCell id="ln6FcJClQyvE4a3wRQ_i-9" style="edgeStyle=orthogonalEdgeStyle;rounded=0;orthogonalLoop=1;jettySize=auto;html=1;entryX=0.5;entryY=0;entryDx=0;entryDy=0;" parent="1" source="ln6FcJClQyvE4a3wRQ_i-11" target="ln6FcJClQyvE4a3wRQ_i-3" edge="1">
          <mxGeometry relative="1" as="geometry" />
        </mxCell>
        <mxCell id="ln6FcJClQyvE4a3wRQ_i-10" value="" style="edgeStyle=orthogonalEdgeStyle;rounded=0;orthogonalLoop=1;jettySize=auto;html=1;" parent="1" source="ln6FcJClQyvE4a3wRQ_i-11" target="ln6FcJClQyvE4a3wRQ_i-56" edge="1">
          <mxGeometry relative="1" as="geometry" />
        </mxCell>
        <mxCell id="ln6FcJClQyvE4a3wRQ_i-11" value="&lt;b&gt;Senior Management&lt;/b&gt;" style="rounded=1;whiteSpace=wrap;html=1;" parent="1" vertex="1">
          <mxGeometry x="1173" y="101.25" width="80" height="40" as="geometry" />
        </mxCell>
        <mxCell id="ln6FcJClQyvE4a3wRQ_i-12" value="attitude, belifs" style="text;html=1;strokeColor=none;fillColor=none;align=center;verticalAlign=middle;whiteSpace=wrap;rounded=0;" parent="1" vertex="1">
          <mxGeometry x="1203" y="141.25" width="110" height="30" as="geometry" />
        </mxCell>
        <mxCell id="ln6FcJClQyvE4a3wRQ_i-13" value="" style="edgeStyle=orthogonalEdgeStyle;rounded=0;orthogonalLoop=1;jettySize=auto;html=1;" parent="1" source="ln6FcJClQyvE4a3wRQ_i-14" target="ln6FcJClQyvE4a3wRQ_i-15" edge="1">
          <mxGeometry relative="1" as="geometry" />
        </mxCell>
        <mxCell id="ln6FcJClQyvE4a3wRQ_i-14" value="risk aware" style="rounded=1;whiteSpace=wrap;html=1;" parent="1" vertex="1">
          <mxGeometry x="1333" y="181.25" width="80" height="40" as="geometry" />
        </mxCell>
        <mxCell id="ln6FcJClQyvE4a3wRQ_i-15" value="通報可疑活動" style="rounded=1;whiteSpace=wrap;html=1;" parent="1" vertex="1">
          <mxGeometry x="1493" y="181.25" width="90" height="40" as="geometry" />
        </mxCell>
        <mxCell id="ln6FcJClQyvE4a3wRQ_i-16" value="Risk Tolerance" style="rounded=1;whiteSpace=wrap;html=1;" parent="1" vertex="1">
          <mxGeometry x="1263" y="362.5" width="100" height="40" as="geometry" />
        </mxCell>
        <mxCell id="ln6FcJClQyvE4a3wRQ_i-17" value="allowed deviation" style="text;html=1;strokeColor=none;fillColor=none;align=center;verticalAlign=middle;whiteSpace=wrap;rounded=0;" parent="1" vertex="1">
          <mxGeometry x="1253.5" y="311.25" width="124" height="32" as="geometry" />
        </mxCell>
        <mxCell id="ln6FcJClQyvE4a3wRQ_i-18" value="" style="edgeStyle=orthogonalEdgeStyle;rounded=0;orthogonalLoop=1;jettySize=auto;html=1;" parent="1" source="ln6FcJClQyvE4a3wRQ_i-19" target="ln6FcJClQyvE4a3wRQ_i-21" edge="1">
          <mxGeometry relative="1" as="geometry" />
        </mxCell>
        <mxCell id="ln6FcJClQyvE4a3wRQ_i-19" value="&lt;b&gt;Asset&lt;/b&gt;" style="rounded=1;whiteSpace=wrap;html=1;" parent="1" vertex="1">
          <mxGeometry x="1770" y="35" width="90" height="30" as="geometry" />
        </mxCell>
        <mxCell id="ln6FcJClQyvE4a3wRQ_i-20" style="edgeStyle=orthogonalEdgeStyle;rounded=0;orthogonalLoop=1;jettySize=auto;html=1;entryX=0;entryY=0.5;entryDx=0;entryDy=0;" parent="1" source="ln6FcJClQyvE4a3wRQ_i-21" target="ln6FcJClQyvE4a3wRQ_i-22" edge="1">
          <mxGeometry relative="1" as="geometry" />
        </mxCell>
        <mxCell id="ln6FcJClQyvE4a3wRQ_i-21" value="&lt;b&gt;Value&lt;/b&gt;&lt;br&gt;控制的成本不可超過它" style="rounded=1;whiteSpace=wrap;html=1;" parent="1" vertex="1">
          <mxGeometry x="1770" y="145" width="90" height="60" as="geometry" />
        </mxCell>
        <mxCell id="ln6FcJClQyvE4a3wRQ_i-22" value="&lt;div style=&quot;text-align: left;&quot;&gt;&lt;b style=&quot;background-color: initial;&quot;&gt;Reputational&lt;/b&gt;&lt;/div&gt;&lt;b&gt;&lt;div style=&quot;text-align: left;&quot;&gt;&lt;b style=&quot;background-color: initial;&quot;&gt;Impact on partners, 3rd Party&lt;/b&gt;&lt;/div&gt;&lt;div style=&quot;text-align: left;&quot;&gt;&lt;b style=&quot;background-color: initial;&quot;&gt;Impact on BC&lt;/b&gt;&lt;/div&gt;&lt;div style=&quot;text-align: left;&quot;&gt;&lt;b style=&quot;background-color: initial;&quot;&gt;Monetary loss&lt;/b&gt;&lt;/div&gt;&lt;div style=&quot;text-align: left;&quot;&gt;Breach of contracts&lt;/div&gt;&lt;div style=&quot;text-align: left;&quot;&gt;Competitive advantage&lt;/div&gt;&lt;div style=&quot;text-align: left;&quot;&gt;Legal cost 費用&lt;/div&gt;&lt;/b&gt;" style="rounded=1;whiteSpace=wrap;html=1;" parent="1" vertex="1">
          <mxGeometry x="2050" y="113.75" width="180" height="122.5" as="geometry" />
        </mxCell>
        <mxCell id="ln6FcJClQyvE4a3wRQ_i-23" value="&lt;b&gt;calculated on IMPACT&lt;/b&gt;" style="text;html=1;strokeColor=none;fillColor=none;align=center;verticalAlign=middle;whiteSpace=wrap;rounded=0;" parent="1" vertex="1">
          <mxGeometry x="1890" y="150" width="160" height="30" as="geometry" />
        </mxCell>
        <mxCell id="ln6FcJClQyvE4a3wRQ_i-24" value="" style="edgeStyle=orthogonalEdgeStyle;rounded=0;orthogonalLoop=1;jettySize=auto;html=1;" parent="1" source="ln6FcJClQyvE4a3wRQ_i-29" target="ln6FcJClQyvE4a3wRQ_i-30" edge="1">
          <mxGeometry relative="1" as="geometry" />
        </mxCell>
        <mxCell id="ln6FcJClQyvE4a3wRQ_i-25" style="edgeStyle=orthogonalEdgeStyle;rounded=0;orthogonalLoop=1;jettySize=auto;html=1;entryX=0.5;entryY=0;entryDx=0;entryDy=0;" parent="1" source="ln6FcJClQyvE4a3wRQ_i-29" target="ln6FcJClQyvE4a3wRQ_i-32" edge="1">
          <mxGeometry relative="1" as="geometry" />
        </mxCell>
        <mxCell id="ln6FcJClQyvE4a3wRQ_i-26" value="" style="edgeStyle=orthogonalEdgeStyle;rounded=0;orthogonalLoop=1;jettySize=auto;html=1;" parent="1" source="ln6FcJClQyvE4a3wRQ_i-29" target="ln6FcJClQyvE4a3wRQ_i-37" edge="1">
          <mxGeometry relative="1" as="geometry" />
        </mxCell>
        <mxCell id="ln6FcJClQyvE4a3wRQ_i-27" value="" style="edgeStyle=orthogonalEdgeStyle;rounded=0;orthogonalLoop=1;jettySize=auto;html=1;" parent="1" source="ln6FcJClQyvE4a3wRQ_i-29" target="ln6FcJClQyvE4a3wRQ_i-38" edge="1">
          <mxGeometry relative="1" as="geometry" />
        </mxCell>
        <mxCell id="ln6FcJClQyvE4a3wRQ_i-28" value="" style="edgeStyle=orthogonalEdgeStyle;rounded=0;orthogonalLoop=1;jettySize=auto;html=1;entryX=0;entryY=0.5;entryDx=0;entryDy=0;" parent="1" source="ln6FcJClQyvE4a3wRQ_i-29" target="ln6FcJClQyvE4a3wRQ_i-40" edge="1">
          <mxGeometry relative="1" as="geometry" />
        </mxCell>
        <mxCell id="ln6FcJClQyvE4a3wRQ_i-29" value="&lt;b&gt;Threat&lt;br&gt;無法被我們控制&lt;/b&gt;" style="rounded=1;whiteSpace=wrap;html=1;" parent="1" vertex="1">
          <mxGeometry x="1770" y="370" width="90" height="50" as="geometry" />
        </mxCell>
        <mxCell id="ln6FcJClQyvE4a3wRQ_i-30" value="&lt;b&gt;已識別&lt;/b&gt;" style="rounded=1;whiteSpace=wrap;html=1;" parent="1" vertex="1">
          <mxGeometry x="1690" y="490" width="90" height="30" as="geometry" />
        </mxCell>
        <mxCell id="ln6FcJClQyvE4a3wRQ_i-31" value="" style="edgeStyle=orthogonalEdgeStyle;rounded=0;orthogonalLoop=1;jettySize=auto;html=1;" parent="1" source="ln6FcJClQyvE4a3wRQ_i-32" target="ln6FcJClQyvE4a3wRQ_i-33" edge="1">
          <mxGeometry relative="1" as="geometry" />
        </mxCell>
        <mxCell id="ln6FcJClQyvE4a3wRQ_i-32" value="&lt;b&gt;未識別&lt;/b&gt;" style="rounded=1;whiteSpace=wrap;html=1;" parent="1" vertex="1">
          <mxGeometry x="1860" y="490" width="90" height="30" as="geometry" />
        </mxCell>
        <mxCell id="ln6FcJClQyvE4a3wRQ_i-33" value="&lt;b&gt;More vulnerable&lt;/b&gt;" style="rounded=1;whiteSpace=wrap;html=1;" parent="1" vertex="1">
          <mxGeometry x="1990" y="490" width="90" height="30" as="geometry" />
        </mxCell>
        <mxCell id="ln6FcJClQyvE4a3wRQ_i-34" value="" style="edgeStyle=orthogonalEdgeStyle;rounded=0;orthogonalLoop=1;jettySize=auto;html=1;" parent="1" source="ln6FcJClQyvE4a3wRQ_i-36" target="ln6FcJClQyvE4a3wRQ_i-30" edge="1">
          <mxGeometry relative="1" as="geometry" />
        </mxCell>
        <mxCell id="ln6FcJClQyvE4a3wRQ_i-35" style="edgeStyle=orthogonalEdgeStyle;rounded=0;orthogonalLoop=1;jettySize=auto;html=1;entryX=0.5;entryY=1;entryDx=0;entryDy=0;" parent="1" source="ln6FcJClQyvE4a3wRQ_i-36" target="ln6FcJClQyvE4a3wRQ_i-32" edge="1">
          <mxGeometry relative="1" as="geometry" />
        </mxCell>
        <mxCell id="ln6FcJClQyvE4a3wRQ_i-36" value="Risk practitioner" style="rounded=1;whiteSpace=wrap;html=1;" parent="1" vertex="1">
          <mxGeometry x="1770" y="600" width="90" height="30" as="geometry" />
        </mxCell>
        <mxCell id="ln6FcJClQyvE4a3wRQ_i-37" value="Internal" style="rounded=1;whiteSpace=wrap;html=1;" parent="1" vertex="1">
          <mxGeometry x="2050" y="370" width="90" height="30" as="geometry" />
        </mxCell>
        <mxCell id="ln6FcJClQyvE4a3wRQ_i-38" value="Threat" style="rounded=1;whiteSpace=wrap;html=1;" parent="1" vertex="1">
          <mxGeometry x="2050" y="420" width="90" height="30" as="geometry" />
        </mxCell>
        <mxCell id="ln6FcJClQyvE4a3wRQ_i-39" value="" style="edgeStyle=orthogonalEdgeStyle;rounded=0;orthogonalLoop=1;jettySize=auto;html=1;" parent="1" source="ln6FcJClQyvE4a3wRQ_i-40" target="ln6FcJClQyvE4a3wRQ_i-42" edge="1">
          <mxGeometry relative="1" as="geometry" />
        </mxCell>
        <mxCell id="ln6FcJClQyvE4a3wRQ_i-40" value="Emerging" style="rounded=1;whiteSpace=wrap;html=1;" parent="1" vertex="1">
          <mxGeometry x="2050" y="320" width="90" height="30" as="geometry" />
        </mxCell>
        <mxCell id="ln6FcJClQyvE4a3wRQ_i-41" value="" style="edgeStyle=orthogonalEdgeStyle;rounded=0;orthogonalLoop=1;jettySize=auto;html=1;" parent="1" source="ln6FcJClQyvE4a3wRQ_i-42" target="ln6FcJClQyvE4a3wRQ_i-43" edge="1">
          <mxGeometry relative="1" as="geometry" />
        </mxCell>
        <mxCell id="ln6FcJClQyvE4a3wRQ_i-42" value="&lt;div style=&quot;text-align: left;&quot;&gt;&lt;span style=&quot;background-color: initial;&quot;&gt;unusual pattern&lt;/span&gt;&lt;/div&gt;&lt;div style=&quot;text-align: left;&quot;&gt;&lt;span style=&quot;background-color: initial;&quot;&gt;unusual network performance&lt;/span&gt;&lt;/div&gt;&lt;div style=&quot;text-align: left;&quot;&gt;&lt;span style=&quot;background-color: initial;&quot;&gt;increase activity in logs&lt;/span&gt;&lt;/div&gt;&lt;div style=&quot;text-align: left;&quot;&gt;&lt;span style=&quot;background-color: initial;&quot;&gt;frequent alarms&lt;/span&gt;&lt;/div&gt;" style="rounded=1;whiteSpace=wrap;html=1;" parent="1" vertex="1">
          <mxGeometry x="2200" y="300" width="190" height="70" as="geometry" />
        </mxCell>
        <mxCell id="ln6FcJClQyvE4a3wRQ_i-43" value="&lt;div style=&quot;text-align: left;&quot;&gt;a timely basis&lt;/div&gt;" style="rounded=1;whiteSpace=wrap;html=1;" parent="1" vertex="1">
          <mxGeometry x="2440" y="317.5" width="90" height="35" as="geometry" />
        </mxCell>
        <mxCell id="ln6FcJClQyvE4a3wRQ_i-44" value="" style="edgeStyle=orthogonalEdgeStyle;rounded=0;orthogonalLoop=1;jettySize=auto;html=1;" parent="1" source="ln6FcJClQyvE4a3wRQ_i-45" target="ln6FcJClQyvE4a3wRQ_i-47" edge="1">
          <mxGeometry relative="1" as="geometry" />
        </mxCell>
        <mxCell id="ln6FcJClQyvE4a3wRQ_i-45" value="&lt;b&gt;Vulnerability&lt;br&gt;可以被控制&lt;/b&gt;" style="rounded=1;whiteSpace=wrap;html=1;" parent="1" vertex="1">
          <mxGeometry x="1770" y="680" width="90" height="50" as="geometry" />
        </mxCell>
        <mxCell id="ln6FcJClQyvE4a3wRQ_i-46" value="" style="edgeStyle=orthogonalEdgeStyle;rounded=0;orthogonalLoop=1;jettySize=auto;html=1;" parent="1" source="ln6FcJClQyvE4a3wRQ_i-47" target="ln6FcJClQyvE4a3wRQ_i-49" edge="1">
          <mxGeometry relative="1" as="geometry" />
        </mxCell>
        <mxCell id="ln6FcJClQyvE4a3wRQ_i-47" value="weakness" style="rounded=1;whiteSpace=wrap;html=1;" parent="1" vertex="1">
          <mxGeometry x="1910" y="690" width="90" height="30" as="geometry" />
        </mxCell>
        <mxCell id="ln6FcJClQyvE4a3wRQ_i-48" value="" style="edgeStyle=orthogonalEdgeStyle;rounded=0;orthogonalLoop=1;jettySize=auto;html=1;" parent="1" source="ln6FcJClQyvE4a3wRQ_i-49" target="ln6FcJClQyvE4a3wRQ_i-50" edge="1">
          <mxGeometry relative="1" as="geometry" />
        </mxCell>
        <mxCell id="ln6FcJClQyvE4a3wRQ_i-49" value="lack of controls" style="rounded=1;whiteSpace=wrap;html=1;" parent="1" vertex="1">
          <mxGeometry x="2040" y="690" width="90" height="30" as="geometry" />
        </mxCell>
        <mxCell id="ln6FcJClQyvE4a3wRQ_i-50" value="a potential risk" style="rounded=1;whiteSpace=wrap;html=1;" parent="1" vertex="1">
          <mxGeometry x="2170" y="690" width="90" height="30" as="geometry" />
        </mxCell>
        <mxCell id="ln6FcJClQyvE4a3wRQ_i-51" value="紀錄" style="text;html=1;strokeColor=none;fillColor=none;align=center;verticalAlign=middle;whiteSpace=wrap;rounded=0;" parent="1" vertex="1">
          <mxGeometry x="1730" y="535" width="60" height="30" as="geometry" />
        </mxCell>
        <mxCell id="ln6FcJClQyvE4a3wRQ_i-52" value="" style="edgeStyle=orthogonalEdgeStyle;rounded=0;orthogonalLoop=1;jettySize=auto;html=1;" parent="1" source="ln6FcJClQyvE4a3wRQ_i-54" target="ln6FcJClQyvE4a3wRQ_i-11" edge="1">
          <mxGeometry relative="1" as="geometry" />
        </mxCell>
        <mxCell id="ln6FcJClQyvE4a3wRQ_i-53" style="edgeStyle=orthogonalEdgeStyle;rounded=0;orthogonalLoop=1;jettySize=auto;html=1;entryX=0.5;entryY=0;entryDx=0;entryDy=0;" parent="1" source="ln6FcJClQyvE4a3wRQ_i-54" target="ln6FcJClQyvE4a3wRQ_i-72" edge="1">
          <mxGeometry relative="1" as="geometry" />
        </mxCell>
        <mxCell id="ln6FcJClQyvE4a3wRQ_i-54" value="&lt;b&gt;Risk practitioner&lt;/b&gt;" style="rounded=1;whiteSpace=wrap;html=1;" parent="1" vertex="1">
          <mxGeometry x="898" y="106.25" width="90" height="30" as="geometry" />
        </mxCell>
        <mxCell id="ln6FcJClQyvE4a3wRQ_i-55" value="communicate" style="text;html=1;strokeColor=none;fillColor=none;align=center;verticalAlign=middle;whiteSpace=wrap;rounded=0;" parent="1" vertex="1">
          <mxGeometry x="1013" y="96.25" width="90" height="30" as="geometry" />
        </mxCell>
        <mxCell id="ln6FcJClQyvE4a3wRQ_i-56" value="Goals" style="rounded=1;whiteSpace=wrap;html=1;" parent="1" vertex="1">
          <mxGeometry x="1333" y="106.25" width="80" height="30" as="geometry" />
        </mxCell>
        <mxCell id="ln6FcJClQyvE4a3wRQ_i-57" value="" style="shape=process;whiteSpace=wrap;html=1;backgroundOutline=1;" parent="1" vertex="1">
          <mxGeometry x="238" y="128.75" width="370" height="261.25" as="geometry" />
        </mxCell>
        <mxCell id="ln6FcJClQyvE4a3wRQ_i-58" value="" style="edgeStyle=orthogonalEdgeStyle;rounded=0;orthogonalLoop=1;jettySize=auto;html=1;" parent="1" source="ln6FcJClQyvE4a3wRQ_i-61" target="ln6FcJClQyvE4a3wRQ_i-63" edge="1">
          <mxGeometry relative="1" as="geometry" />
        </mxCell>
        <mxCell id="ln6FcJClQyvE4a3wRQ_i-59" style="edgeStyle=orthogonalEdgeStyle;rounded=0;orthogonalLoop=1;jettySize=auto;html=1;entryX=0;entryY=0.25;entryDx=0;entryDy=0;" parent="1" source="ln6FcJClQyvE4a3wRQ_i-61" target="ln6FcJClQyvE4a3wRQ_i-69" edge="1">
          <mxGeometry relative="1" as="geometry" />
        </mxCell>
        <mxCell id="ln6FcJClQyvE4a3wRQ_i-60" value="" style="edgeStyle=orthogonalEdgeStyle;rounded=0;orthogonalLoop=1;jettySize=auto;html=1;" parent="1" source="ln6FcJClQyvE4a3wRQ_i-61" target="ln6FcJClQyvE4a3wRQ_i-70" edge="1">
          <mxGeometry relative="1" as="geometry" />
        </mxCell>
        <mxCell id="ln6FcJClQyvE4a3wRQ_i-61" value="Risk Identification" style="rounded=1;whiteSpace=wrap;html=1;" parent="1" vertex="1">
          <mxGeometry x="308" y="153" width="120" height="40" as="geometry" />
        </mxCell>
        <mxCell id="ln6FcJClQyvE4a3wRQ_i-62" value="" style="edgeStyle=orthogonalEdgeStyle;rounded=0;orthogonalLoop=1;jettySize=auto;html=1;" parent="1" source="ln6FcJClQyvE4a3wRQ_i-63" target="ln6FcJClQyvE4a3wRQ_i-64" edge="1">
          <mxGeometry relative="1" as="geometry" />
        </mxCell>
        <mxCell id="ln6FcJClQyvE4a3wRQ_i-63" value="Risk analysis" style="rounded=1;whiteSpace=wrap;html=1;" parent="1" vertex="1">
          <mxGeometry x="308" y="238" width="120" height="40" as="geometry" />
        </mxCell>
        <mxCell id="ln6FcJClQyvE4a3wRQ_i-64" value="Risk Evaluation" style="rounded=1;whiteSpace=wrap;html=1;" parent="1" vertex="1">
          <mxGeometry x="308" y="321.75" width="120" height="40" as="geometry" />
        </mxCell>
        <mxCell id="ln6FcJClQyvE4a3wRQ_i-65" value="&lt;b&gt;Risk Assessment&lt;/b&gt;" style="text;html=1;strokeColor=none;fillColor=none;align=left;verticalAlign=middle;whiteSpace=wrap;rounded=0;" parent="1" vertex="1">
          <mxGeometry x="238" y="98.75" width="220" height="30" as="geometry" />
        </mxCell>
        <mxCell id="ln6FcJClQyvE4a3wRQ_i-66" value="R = P x I&lt;br&gt;定性: 低中高&lt;br&gt;定量: 數字, %" style="text;html=1;strokeColor=none;fillColor=none;align=left;verticalAlign=middle;whiteSpace=wrap;rounded=0;" parent="1" vertex="1">
          <mxGeometry x="448" y="235.88" width="110" height="47" as="geometry" />
        </mxCell>
        <mxCell id="ln6FcJClQyvE4a3wRQ_i-67" value="risk appetite&lt;br&gt;risk tolerance" style="text;html=1;strokeColor=none;fillColor=none;align=left;verticalAlign=middle;whiteSpace=wrap;rounded=0;" parent="1" vertex="1">
          <mxGeometry x="448" y="330.5" width="90" height="30" as="geometry" />
        </mxCell>
        <mxCell id="ln6FcJClQyvE4a3wRQ_i-68" value="威脅: 外部不可控&lt;br&gt;弱點: 內部可控" style="text;html=1;strokeColor=none;fillColor=none;align=left;verticalAlign=middle;whiteSpace=wrap;rounded=0;" parent="1" vertex="1">
          <mxGeometry x="448" y="158" width="110" height="30" as="geometry" />
        </mxCell>
        <mxCell id="ln6FcJClQyvE4a3wRQ_i-69" value="&lt;span style=&quot;background-color: initial;&quot;&gt;&amp;nbsp;identify assets&lt;/span&gt;&lt;br&gt;&lt;span style=&quot;background-color: initial;&quot;&gt;&amp;nbsp;identify threats&lt;/span&gt;&lt;br&gt;&lt;span style=&quot;background-color: initial;&quot;&gt;&amp;nbsp;identify controls&lt;/span&gt;&lt;br&gt;&lt;span style=&quot;background-color: initial;&quot;&gt;&amp;nbsp;identify vulnerabilities&lt;/span&gt;&lt;br&gt;&lt;span style=&quot;background-color: initial;&quot;&gt;&amp;nbsp;identify consequences&lt;/span&gt;" style="rounded=1;whiteSpace=wrap;html=1;align=left;" parent="1" vertex="1">
          <mxGeometry x="628" y="151" width="132" height="87" as="geometry" />
        </mxCell>
        <mxCell id="ln6FcJClQyvE4a3wRQ_i-70" value="Risk Register" style="shape=document;whiteSpace=wrap;html=1;boundedLbl=1;" parent="1" vertex="1">
          <mxGeometry x="130" y="144" width="80" height="58" as="geometry" />
        </mxCell>
        <mxCell id="ln6FcJClQyvE4a3wRQ_i-71" style="edgeStyle=orthogonalEdgeStyle;rounded=0;orthogonalLoop=1;jettySize=auto;html=1;entryX=0.25;entryY=1;entryDx=0;entryDy=0;exitX=0.75;exitY=0;exitDx=0;exitDy=0;startArrow=classic;startFill=1;dashed=1;" parent="1" source="ln6FcJClQyvE4a3wRQ_i-72" target="ln6FcJClQyvE4a3wRQ_i-11" edge="1">
          <mxGeometry relative="1" as="geometry">
            <Array as="points">
              <mxPoint x="963" y="172.5" />
              <mxPoint x="1193" y="172.5" />
            </Array>
          </mxGeometry>
        </mxCell>
        <mxCell id="ln6FcJClQyvE4a3wRQ_i-72" value="&lt;b&gt;Strategic&lt;br&gt;Alignment&lt;br&gt;&lt;/b&gt;" style="rounded=1;whiteSpace=wrap;html=1;" parent="1" vertex="1">
          <mxGeometry x="903" y="271.25" width="80" height="40" as="geometry" />
        </mxCell>
        <mxCell id="TevLKIAy9YhjM-IDDqqt-1" value="溝通" style="text;html=1;strokeColor=none;fillColor=none;align=center;verticalAlign=middle;whiteSpace=wrap;rounded=0;" vertex="1" parent="1">
          <mxGeometry x="960" y="150" width="60" height="30" as="geometry" />
        </mxCell>
        <mxCell id="TevLKIAy9YhjM-IDDqqt-2" value="參與" style="text;html=1;strokeColor=none;fillColor=none;align=center;verticalAlign=middle;whiteSpace=wrap;rounded=0;" vertex="1" parent="1">
          <mxGeometry x="1113" y="150" width="60" height="30" as="geometry" />
        </mxCell>
      </root>
    </mxGraphModel>
  </diagram>
</mxfile>
